<svg class="hexominos-wordmark" xmlns="http://www.w3.org/2000/svg" viewBox="120 530 1410 200">
  <path fill="currentColor" d="M139.5,544.5h60.76c.9.08,1.35.4,1.35.96v58.78h43.01v-58.18c.1-.72.55-1.08,1.35-1.08h60.61c.9.08,1.35.44,1.35,1.08v167.83c0,.64-.45.96-1.35.96h-60.61c-.9,0-1.35-.32-1.35-.96v-59.26h-43.01v58.66c0,.72-.45,1.08-1.35,1.08h-60.76c-.8,0-1.2-.36-1.2-1.08v-167.83c.1-.64.5-.96,1.2-.96Z"/>
  <path fill="currentColor" d="M318.22,544.74h150.24c.8.08,1.2.4,1.2.96v48.36c0,.72-.4,1.08-1.2,1.08h-88.13v9.34h48.88c.9.08,1.35.44,1.35,1.08v48.24c0,.72-.45,1.08-1.35,1.08h-48.88v8.86h88.13c.8.08,1.2.4,1.2.96v48.84c0,.72-.4,1.08-1.2,1.08h-150.24c-.8,0-1.2-.36-1.2-1.08v-167.83c.1-.64.5-.96,1.2-.96Z"/>
  <path fill="currentColor" d="M479.96,544.44h67.23c2,1.36,7.02,9.5,15.04,24.42,1.3-1.04,6.11-8.98,14.44-23.82l1.2-.6h67.23c.9.16,1.35.52,1.35,1.08-30.98,53.47-47.28,81.36-48.88,83.68,32.58,56.1,48.88,84.51,48.88,85.23l-1.35.48h-67.23c-2.01-2.15-7.02-10.45-15.04-24.9h-.6c-7.02,13.41-12.03,21.71-15.04,24.9h-68.43c0-.8,16.29-29.37,48.88-85.71-3.01-4.87-19.3-32.92-48.88-84.16l1.2-.6Z"/>
  <path fill="currentColor" d="M1046.53,714.3h-60.76c-.8-.08-1.2-.4-1.2-.96v-167.83c0-.72.4-1.08,1.2-1.08h60.76c.9,0,1.35.36,1.35,1.08v167.83c-.2.64-.65.96-1.35.96Z"/>
  <path fill="currentColor" d="M751.51,544.73h-91.98c-1.89,0-3.63,1.01-4.57,2.64l-45.99,79.65c-.94,1.63-.94,3.65,0,5.28l45.99,79.65c.94,1.63,2.69,2.64,4.57,2.64h91.98c1.89,0,3.63-1.01,4.57-2.64l45.99-79.65c.94-1.63.94-3.65,0-5.28l-45.99-79.65c-.94-1.63-2.69-2.64-4.57-2.64ZM721.84,663.55h-32.99c-2,0-3.85-1.07-4.85-2.8l-16.5-28.57c-1-1.73-1-3.87,0-5.6l16.5-28.57c1-1.73,2.85-2.8,4.85-2.8h32.99c2,0,3.85,1.07,4.85,2.8l16.5,28.57c1,1.73,1,3.87,0,5.6l-16.5,28.57c-1,1.73-2.85,2.8-4.85,2.8Z"/>
  <path fill="currentColor" d="M1328.08,544.44h-91.98c-1.89,0-3.63,1.01-4.57,2.64l-45.99,79.65c-.94,1.63-.94,3.65,0,5.28l45.99,79.65c.94,1.63,2.69,2.64,4.57,2.64h91.98c1.89,0,3.63-1.01,4.57-2.64l45.99-79.65c.94-1.63.94-3.65,0-5.28l-45.99-79.65c-.94-1.63-2.69-2.64-4.57-2.64ZM1298.42,663.25h-32.99c-2,0-3.85-1.07-4.85-2.8l-16.5-28.57c-1-1.73-1-3.87,0-5.6l16.5-28.57c1-1.73,2.85-2.8,4.85-2.8h32.99c2,0,3.85,1.07,4.85,2.8l16.5,28.57c1,1.73,1,3.87,0,5.6l-16.5,28.57c-1,1.73-2.85,2.8-4.85,2.8Z"/>
  <path fill="currentColor" d="M974.99,544.74h-61.96c-9.23,13.25-23.36,34.2-42.41,62.85l-22.26-31.72c-11.63-18.51-18.8-28.89-21.51-31.12h-61.36c-.7,0-1.15.32-1.35.96v4.75l44.22,76.59c.94,1.63.94,3.65,0,5.28l-44.22,76.59v4.63c0,.72.45,1.08,1.35,1.08h61.36c.9,0,1.35-.36,1.35-1.08v-60.69h.6c10.73,17.08,17.69,27.1,20.9,30.05h41.06c2.31-1.51,9.27-11.53,20.9-30.05h.75v60.69c0,.72.4,1.08,1.2,1.08h61.36c.9,0,1.35-.36,1.35-1.08v-167.83c0-.56-.45-.88-1.35-.96Z"/>
  <path fill="currentColor" d="M1179.67,631.71c-.94-1.63-.94-3.65,0-5.28l45.49-78.79v-2.25c0-.56-.45-.88-1.35-.96h-60.61c-.8,0-1.25.32-1.35.96v61.41h-.6c-26.77-40.62-40.91-61.41-42.41-62.37h-61.36c-.8,0-1.25.32-1.35.96v167.83c0,.72.45,1.08,1.35,1.08h61.36c.8,0,1.2-.36,1.2-1.08v-60.69h.75c21.66,33.52,35.54,54.11,41.66,61.77h61.36c.9,0,1.35-.36,1.35-1.08v-2.73l-45.49-78.79Z"/>
  <path fill="currentColor" d="M1506.76,595.91c.9,0,1.35-.36,1.35-1.08v-48.24c0-.64-.45-1-1.35-1.08h-131.14c-10.88,8.38-19.56,15.17-26.08,20.41l35.11,60.8c.94,1.63.94,3.65,0,5.28l-12.26,21.24c1.19.9,2.28,1.71,3.24,2.4h69.18v8.86h-78.91l-26.81,46.44v2.88c0,.72.45,1.08,1.35,1.08h131.14c18.45-14.2,30.63-23.9,36.55-29.09v-51.95c-17.85-14.68-30.03-24.38-36.55-29.09h-68.58v-8.86h103.77Z"/>
</svg>
