<?xml version="1.0" encoding="UTF-8"?>
<svg id="Layer_3" data-name="Layer 3" xmlns="http://www.w3.org/2000/svg" viewBox="0 0 700.61 700.03">
  <defs>
    <style>
      .cls-1 {
        fill: #231f20;
      }

      .cls-2 {
        fill: none;
        stroke: #231f20;
        stroke-miterlimit: 10;
        stroke-width: 35px;
      }
    </style>
  </defs>
  <path class="cls-2" d="M683.11,211.12c0-85.59-93.82-154.97-209.54-154.97-43.96,0-84.74,10.03-118.44,27.14-35.42-20.27-79.83-32.36-128.09-32.36-115.73,0-209.54,69.38-209.54,154.97,0,54.16,37.59,101.8,94.5,129.5v220.26c0,33.62,27.25,60.87,60.87,60.87h349.09c33.62,0,60.87-27.25,60.87-60.87v-212.3c60.14-27.24,100.28-76.27,100.28-132.25Z"/>
  <path class="cls-2" d="M205.84,533.61c35.75,29.17,67.26-44.43,147.76-42s85.48,64.45,127.77,46.61c42.38-17.87,30.04-55.14,11.17-68.53-18.87-13.39-75.58-28.4-139.34-29-63.76-.61-119.36,18.05-147.36,30.83-28,12.78-10.59,53.45,0,62.09Z"/>
  <path class="cls-1" d="M315.27,291.33l-32.93-32.93,31.31-31.31c5.88-5.88,5.88-15.42,0-21.31l-18.08-18.08c-5.88-5.88-15.42-5.88-21.31,0l-31.31,31.31-32.93-32.93c-5.88-5.88-15.42-5.88-21.31,0l-18.08,18.08c-5.88,5.88-5.88,15.42,0,21.31l32.93,32.93-34.54,34.54c-5.88,5.88-5.88,15.42,0,21.31l18.08,18.08c5.88,5.88,15.42,5.88,21.31,0l34.54-34.54,32.93,32.93c5.88,5.88,15.42,5.88,21.31,0l18.08-18.08c5.88-5.88,5.88-15.42,0-21.31Z"/>
  <path class="cls-1" d="M534.74,291.33l-32.93-32.93,31.31-31.31c5.88-5.88,5.88-15.42,0-21.31l-18.08-18.08c-5.88-5.88-15.42-5.88-21.31,0l-31.31,31.31-32.93-32.93c-5.88-5.88-15.42-5.88-21.31,0l-18.08,18.08c-5.88,5.88-5.88,15.42,0,21.31l32.93,32.93-34.54,34.54c-5.88,5.88-5.88,15.42,0,21.31l18.08,18.08c5.88,5.88,15.42,5.88,21.31,0l34.54-34.54,32.93,32.93c5.88,5.88,15.42,5.88,21.31,0l18.08-18.08c5.88-5.88,5.88-15.42,0-21.31Z"/>
</svg>